<svg width="1729" height="62" viewBox="0 0 1729 62" fill="none" xmlns="http://www.w3.org/2000/svg">
<rect y="4" width="1729" height="58" fill="white"/>
<line x1="603" y1="4" x2="603" y2="60" stroke="black" stroke-width="4"/>
<line x1="912" y1="4" x2="912" y2="60" stroke="black" stroke-width="4"/>
<line x1="1214" y1="4" x2="1214" y2="60" stroke="black" stroke-width="4"/>
<path d="M267.145 31.16C269.845 31.16 270.955 31.865 271.105 33.14C271.27 34.52 270.505 35.675 267.61 35.75C264.94 35.825 263.8 35.015 263.71 33.605C263.605 32.075 264.82 31.16 267.145 31.16ZM267.355 32.375C266.005 32.375 265.225 32.675 265.27 33.515C265.3 34.1 265.795 34.58 267.565 34.55C269.05 34.52 269.635 34.055 269.515 33.29C269.41 32.585 268.63 32.375 267.355 32.375ZM266.065 36.335C266.185 36.545 265.99 36.68 265.99 36.905V38.585C266.035 38.585 268.225 38.615 269.65 38.615C271.675 38.615 274.81 38.585 274.825 38.585C274.825 38.615 274.795 38.945 274.795 39.17C274.795 39.47 274.825 39.905 274.825 39.95C274.81 39.95 271.51 39.965 269.455 39.935C267.565 39.905 264.4 39.95 264.385 39.95C264.385 39.935 264.415 38.795 264.415 38.045C264.415 37.325 264.385 36.23 264.385 36.215C264.4 36.185 265.975 36.17 266.065 36.335ZM265.285 26.9C265.3 26.9 266.695 26.945 267.505 26.93C268.33 26.915 269.605 26.9 269.65 26.9C269.65 26.93 269.62 27.305 269.62 27.575C269.62 27.86 269.65 28.28 269.65 28.295C269.59 28.295 268.36 28.265 267.535 28.265C266.65 28.265 265.3 28.295 265.285 28.295C265.285 28.28 265.315 27.86 265.315 27.59C265.315 27.32 265.285 26.915 265.285 26.9ZM272.74 37.07C272.74 37.025 272.77 34.115 272.77 32.225C272.77 30.02 272.74 26.63 272.74 26.585C272.74 26.57 274.36 26.57 274.465 26.765C274.525 26.885 274.42 27.2 274.345 27.32L274.3 31.925L276.385 31.91C276.385 31.925 276.355 32.315 276.355 32.57C276.355 32.87 276.385 33.305 276.385 33.32L274.3 33.305L274.33 36.935C274.33 36.935 274.12 36.995 273.49 37.04C273.01 37.07 272.755 37.07 272.74 37.07ZM262.915 29.075C262.93 29.075 265.855 29.105 267.31 29.105C269.53 29.105 271.96 29.075 272.005 29.075C272.005 29.12 271.975 29.525 271.975 29.81C271.975 30.05 272.005 30.395 272.005 30.44C272.005 30.44 269.11 30.365 267.22 30.35C265.54 30.335 262.93 30.44 262.915 30.44C262.915 30.44 262.945 30.065 262.945 29.75C262.945 29.48 262.915 29.09 262.915 29.075ZM289.15 36.65C289.12 36.65 288.82 36.71 288.385 36.725C288.04 36.74 287.545 36.755 287.515 36.755L287.53 31.91L285.115 31.94C285.115 31.91 285.145 31.46 285.145 31.16C285.145 30.92 285.115 30.53 285.115 30.53L287.53 30.575L287.5 26.585C287.5 26.57 289.075 26.555 289.18 26.72C289.285 26.885 289.12 27.17 289.12 27.32C289.12 27.35 289.06 29.33 289.075 31.805C289.09 33.695 289.15 36.605 289.15 36.65ZM289.585 38.465C289.585 38.465 289.555 38.9 289.555 39.185C289.555 39.47 289.585 39.905 289.585 39.92C289.57 39.92 286.9 39.86 285.175 39.86C282.7 39.86 278.89 39.92 278.845 39.92C278.845 39.905 278.89 38.495 278.89 37.73C278.89 36.83 278.845 35.48 278.845 35.465C278.845 35.45 280.465 35.435 280.525 35.63C280.6 35.84 280.435 36.035 280.435 36.17L280.42 38.48C280.435 38.48 283.3 38.51 285.145 38.51C286.87 38.51 289.57 38.465 289.585 38.465ZM277.885 34.55C277.885 34.535 277.945 32.135 277.945 30.59C277.945 29.255 277.885 27.17 277.885 27.17C277.885 27.17 279.505 27.11 279.58 27.32C279.655 27.515 279.49 27.74 279.49 27.875L279.475 29.495C279.475 29.495 280.345 29.54 281.23 29.525C281.725 29.525 282.925 29.495 282.94 29.495L282.925 27.155C282.925 27.14 284.53 27.11 284.605 27.275C284.695 27.47 284.545 27.71 284.545 27.845C284.545 27.845 284.485 29.75 284.485 30.965C284.485 32.36 284.545 34.52 284.545 34.55C284.53 34.55 282.565 34.49 281.305 34.49C279.97 34.49 277.9 34.55 277.885 34.55ZM279.475 30.92C279.475 30.935 279.445 31.61 279.445 32.06C279.445 32.48 279.475 33.14 279.475 33.14C279.475 33.14 280.375 33.17 281.185 33.17C282.07 33.17 282.925 33.14 282.94 33.14C282.94 33.11 282.97 32.42 282.97 31.97C282.97 31.565 282.94 30.935 282.94 30.92C282.925 30.92 281.98 30.89 281.155 30.89C280.585 30.89 279.505 30.92 279.475 30.92ZM297.595 34.415C297.58 34.415 297.805 38.12 294.745 38.255C292.51 38.36 291.685 36.26 291.715 33.035C291.73 31.655 291.595 27.17 294.865 27.335C298.165 27.5 297.7 32.885 297.7 32.885H299.38L299.35 26.93C299.35 26.93 300.895 26.885 301.015 27.08C301.09 27.215 300.925 27.59 300.925 27.725C300.925 27.725 300.835 31.055 300.835 33.95C300.835 36.17 300.91 39.59 300.91 39.635C300.88 39.635 300.55 39.695 300.13 39.71C299.8 39.725 299.365 39.74 299.35 39.74L299.38 34.415H297.595ZM296.2 32.9C296.215 31.16 296.17 28.745 294.685 28.7C293.275 28.655 293.26 31.625 293.26 32.69C293.26 34.73 293.29 36.89 294.73 36.905C296.095 36.92 296.185 34.565 296.2 32.9ZM303.775 40.22C303.775 40.22 303.37 40.265 303.01 40.295C302.68 40.325 302.17 40.34 302.155 40.34C302.155 40.325 302.2 36.485 302.2 33.995C302.2 31.115 302.155 26.63 302.155 26.6C302.17 26.57 303.76 26.555 303.88 26.765C303.985 26.945 303.79 27.32 303.79 27.44C303.79 27.455 303.73 32.66 303.73 33.695C303.73 36.245 303.775 40.22 303.775 40.22ZM316.741 34.97L312.421 35.015C312.421 35 312.496 32.435 312.481 30.785C312.466 29.6 312.421 27.755 312.421 27.755C312.421 27.755 314.071 27.68 314.101 27.905C314.131 28.145 314.011 28.325 314.011 28.46L313.996 29.855C313.996 29.855 316.951 29.9 317.836 29.885C318.331 29.885 321.031 29.855 321.046 29.855L321.016 27.755C321.016 27.74 322.636 27.71 322.726 27.86C322.831 28.025 322.666 28.265 322.666 28.4C322.666 28.4 322.621 30.08 322.606 31.16C322.591 32.66 322.651 34.985 322.651 35.015L318.331 34.97C318.331 34.985 318.301 35.975 318.301 36.62C318.301 37.025 318.331 37.61 318.331 37.67L324.241 37.625C324.241 37.655 324.211 38.165 324.211 38.51C324.211 38.75 324.241 39.14 324.241 39.14C324.211 39.14 319.861 39.08 317.071 39.08C314.611 39.08 310.786 39.14 310.771 39.14C310.771 39.125 310.786 38.675 310.801 38.375C310.816 38.09 310.786 37.67 310.786 37.64L316.741 37.67C316.741 37.64 316.771 36.965 316.771 36.515C316.771 35.915 316.741 35 316.741 34.97ZM314.011 31.295C314.011 31.31 313.981 31.985 313.981 32.435C313.981 32.885 314.011 33.59 314.011 33.59C314.011 33.59 316.741 33.62 317.551 33.62C318.436 33.62 321.031 33.59 321.046 33.59C321.046 33.56 321.076 32.96 321.076 32.555C321.076 32.06 321.046 31.31 321.046 31.295C321.031 31.295 318.346 31.265 317.521 31.265C316.951 31.265 314.041 31.295 314.011 31.295ZM325.876 27.755C325.906 27.755 328.291 27.8 329.521 27.8C330.481 27.8 332.896 27.755 332.911 27.755C332.911 27.755 333.091 30.86 332.446 32.66C331.111 36.395 326.371 38.36 326.341 38.375C326.326 38.36 326.041 38.105 325.801 37.85C325.486 37.52 325.246 37.325 325.201 37.28C325.216 37.28 328.351 36.065 330.031 33.95C331.666 31.895 331.366 29.24 331.366 29.21C331.351 29.21 329.761 29.225 328.741 29.225C327.901 29.225 325.921 29.27 325.876 29.27C325.876 29.255 325.906 28.805 325.906 28.52C325.906 28.265 325.876 27.77 325.876 27.755ZM337.276 40.22C337.261 40.22 336.736 40.265 336.391 40.28C336.076 40.295 335.581 40.31 335.566 40.31C335.566 40.295 335.626 36.425 335.626 33.95C335.626 31.07 335.536 26.57 335.536 26.57C335.551 26.54 337.291 26.54 337.366 26.78C337.411 26.93 337.261 27.26 337.261 27.35C337.261 27.365 337.186 32.39 337.216 34.73C337.246 36.875 337.276 40.205 337.276 40.22Z" fill="black"/>
<path d="M728.44 27.695C728.5 27.695 730.345 27.74 731.575 27.74C732.805 27.74 734.695 27.695 734.74 27.695C734.74 27.755 734.71 28.1 734.71 28.37C734.71 28.67 734.74 29.105 734.74 29.12L732.265 29.105V30.365C732.265 30.38 732.055 32.885 733.27 34.805C734.35 36.515 735.31 37.46 735.325 37.475C735.31 37.49 734.86 37.76 734.59 37.94C734.395 38.075 734.11 38.27 734.095 38.285C734.08 38.27 733.24 37.37 732.49 36.26C731.815 35.255 731.56 34.46 731.56 34.445C731.56 34.46 731.185 35.435 730.195 36.86C729.775 37.475 729.07 38.42 729.055 38.435C729.01 38.405 728.605 38.18 728.29 38.015C728.05 37.895 727.675 37.715 727.66 37.715C727.675 37.7 728.635 36.83 729.715 34.82C730.9 32.63 730.78 30.2 730.78 30.185V29.105L728.425 29.12C728.425 29.075 728.455 28.67 728.455 28.385C728.455 28.115 728.44 27.71 728.44 27.695ZM737.185 34.355L737.215 39.695C737.2 39.695 736.795 39.725 736.525 39.74C736.195 39.755 735.715 39.74 735.685 39.74C735.685 39.74 735.76 35.54 735.76 32.855C735.76 30.515 735.685 26.915 735.685 26.855C735.685 26.84 737.23 26.78 737.335 27.035C737.425 27.26 737.23 27.575 737.23 27.665L737.185 32.99H738.7L738.655 26.585C738.655 26.57 740.215 26.525 740.29 26.72C740.38 26.975 740.2 27.11 740.2 27.365C740.2 27.395 740.155 30.92 740.155 33.185C740.155 35.915 740.215 40.145 740.215 40.175C740.2 40.175 739.945 40.265 739.45 40.28C739.075 40.295 738.685 40.265 738.67 40.265L738.7 34.355H737.185ZM751.42 31.955L751.465 34.475C751.45 34.475 751.315 34.55 750.715 34.58C750.16 34.61 749.965 34.595 749.935 34.595C749.935 34.595 749.965 32.705 749.98 31.505C749.995 29.675 749.965 26.885 749.965 26.855C749.965 26.84 751.45 26.78 751.57 27.005C751.645 27.155 751.465 27.515 751.465 27.59L751.42 30.53H752.92L752.905 26.6C752.905 26.585 754.465 26.51 754.555 26.72C754.675 26.99 754.48 27.065 754.48 27.275C754.48 27.29 754.465 29.78 754.465 31.385C754.465 32.825 754.48 35.03 754.48 35.06C754.465 35.06 754.345 35.165 753.655 35.165C753.28 35.165 752.905 35.18 752.89 35.18L752.92 31.955H751.42ZM745.03 27.17C745.045 27.14 746.47 27.11 746.62 27.335C746.695 27.455 746.56 27.725 746.575 27.77C746.575 27.785 746.215 29.42 747.28 31.145C748.18 32.615 749.47 33.29 749.515 33.32C749.485 33.35 749.11 33.725 748.855 33.965C748.705 34.115 748.465 34.34 748.45 34.355C748.42 34.34 748.105 34.22 747.01 33.125C746.065 32.18 745.795 31.385 745.765 31.34C745.765 31.355 745.57 32.15 744.385 33.425C743.98 33.86 743.32 34.49 743.305 34.505C743.275 34.475 743.17 34.34 742.72 34.085C742.465 33.935 742.03 33.71 741.985 33.695C742.03 33.665 743.095 32.93 744.175 31.205C745.33 29.36 745.03 27.215 745.03 27.17ZM749.425 34.925C752.965 34.88 754.72 36.005 754.72 37.655C754.72 38.96 753.4 40.16 749.59 40.22C745.855 40.28 744.055 39.17 743.995 37.67C743.905 35.42 746.62 34.955 749.425 34.925ZM749.425 36.215C748.225 36.23 745.525 36.395 745.63 37.67C745.69 38.465 746.995 39.02 749.575 38.96C751.57 38.915 753.265 38.525 753.19 37.565C753.1 36.47 750.91 36.2 749.425 36.215ZM762.4 34.34C760.015 34.34 756.295 34.4 756.28 34.4C756.28 34.385 756.295 34.085 756.31 33.875C756.325 33.59 756.295 33.05 756.295 33.02L762.22 33.08V31.715L757.9 31.76C757.9 31.715 757.96 30.335 757.96 29.15C757.96 28.325 757.9 27.05 757.9 27.05C757.93 27.05 761.11 27.125 762.61 27.11C764.17 27.095 768.115 27.035 768.13 27.035C768.13 27.05 768.07 28.775 768.085 29.6C768.1 30.455 768.145 31.745 768.145 31.775L763.78 31.73V33.08L769.795 33.02C769.795 33.02 769.765 33.47 769.765 33.77C769.765 34.025 769.795 34.355 769.795 34.415C769.75 34.415 765.28 34.34 762.4 34.34ZM766.555 28.445C766.54 28.445 764.32 28.4 762.88 28.4C761.56 28.4 759.49 28.445 759.49 28.445C759.49 28.445 759.46 29.03 759.46 29.405C759.46 29.81 759.49 30.41 759.49 30.425C759.505 30.425 761.665 30.47 763.06 30.47C764.425 30.47 766.51 30.425 766.555 30.425C766.555 30.425 766.585 29.885 766.585 29.54C766.585 29.12 766.555 28.46 766.555 28.445ZM757.9 36.935C757.9 36.92 757.93 36.47 757.93 36.185C757.93 35.945 757.9 35.585 757.9 35.555C757.915 35.555 761.095 35.6 763.135 35.6C765.1 35.6 768.16 35.555 768.19 35.555C768.19 35.57 768.145 37.22 768.145 38.285C768.145 39.05 768.19 40.22 768.19 40.25C768.145 40.25 767.725 40.295 767.29 40.31C767.02 40.325 766.645 40.34 766.615 40.34L766.63 36.92C766.6 36.92 764.35 36.89 762.895 36.89C760.945 36.89 757.915 36.935 757.9 36.935ZM778.06 32.585V33.695L784.075 33.665C784.075 33.68 784.045 34.01 784.045 34.22C784.045 34.52 784.075 35 784.075 35C784.045 35 779.815 34.97 777.085 34.97C774.385 34.97 770.53 35.03 770.515 35.03C770.515 34.985 770.545 34.67 770.545 34.43C770.545 34.13 770.515 33.695 770.515 33.68L776.47 33.695V32.6L772.135 32.615C772.135 32.57 772.15 31.52 772.165 30.98C772.18 30.305 772.15 29.27 772.15 29.225C772.18 29.225 775.15 29.315 777.07 29.3C778.54 29.3 780.835 29.225 780.835 29.225V28.295C780.835 28.295 778.405 28.265 776.86 28.265C775.015 28.265 772.105 28.295 772.09 28.295C772.09 28.28 772.12 27.845 772.12 27.56C772.12 27.35 772.09 27.02 772.09 27.005C772.105 27.005 775.105 27.035 776.965 27.035C779.11 27.035 782.38 27.005 782.425 27.005C782.425 27.05 782.395 27.995 782.395 28.64C782.395 29.345 782.425 30.41 782.425 30.44C782.41 30.44 779.365 30.35 777.415 30.365C775.975 30.38 773.74 30.44 773.74 30.44V31.355C773.785 31.355 775.96 31.445 777.625 31.43C780.055 31.415 782.605 31.355 782.62 31.355C782.62 31.385 782.59 31.7 782.59 31.91C782.59 32.18 782.62 32.57 782.62 32.585H778.06ZM772.12 37.37C772.12 37.37 772.15 37.025 772.15 36.8C772.15 36.53 772.12 36.155 772.12 36.11C772.135 36.11 775.135 36.155 776.86 36.14C779.005 36.125 782.38 36.11 782.425 36.11C782.425 36.14 782.425 37.385 782.44 38.195C782.455 39.02 782.485 40.265 782.485 40.295C782.455 40.295 782.44 40.37 781.63 40.385C781.21 40.4 780.91 40.37 780.895 40.37L780.865 37.37C780.85 37.37 778.375 37.325 776.755 37.34C774.94 37.355 772.135 37.37 772.12 37.37Z" fill="black"/>
<path d="M1450.59 39.2V30.965H1452.18V31.97C1452.18 31.97 1452.68 30.905 1453.83 30.725C1455.99 30.38 1456.52 31.97 1456.52 31.97C1456.53 31.97 1457 30.725 1458.6 30.68C1461.65 30.59 1461.38 33.005 1461.38 33.605V39.2H1459.79V33.86C1459.79 33.08 1459.62 32.24 1458.57 32.195C1457.31 32.135 1456.74 32.75 1456.74 33.905V39.2H1455.15V33.935C1455.15 33.665 1455.29 32.195 1453.85 32.195C1452.95 32.195 1452.18 33.02 1452.18 33.845V39.2H1450.59ZM1467.07 37.745C1468.66 37.775 1468.93 36.44 1468.93 36.44H1470.49C1470.49 36.44 1470.13 39.2 1467.01 39.2C1464.67 39.2 1463.32 37.625 1463.32 35.105C1463.32 32.795 1464.54 30.68 1467.03 30.68C1470.69 30.68 1470.73 34.46 1470.69 35.45H1464.97C1464.93 36.515 1465.68 37.715 1467.07 37.745ZM1465.02 34.235H1469.01C1469.01 34.235 1469.08 32.21 1467 32.165C1465.11 32.12 1465.02 34.235 1465.02 34.235ZM1479.27 33.11V39.2H1477.68V34.085C1477.68 33.56 1477.76 32.18 1476.2 32.18C1475.12 32.18 1474.28 33.125 1474.28 33.905V39.2H1472.69V30.92H1474.28V31.73C1474.28 31.745 1474.88 30.77 1476.27 30.695C1478.72 30.545 1479.27 31.88 1479.27 33.11ZM1481.57 36.725V30.68H1483.16V36.005C1483.16 36.62 1483.13 37.82 1484.71 37.805C1485.83 37.79 1486.57 37.13 1486.57 35.93V30.68H1488.16V38.96H1486.48V38.21C1486.48 38.195 1485.86 39.11 1484.57 39.185C1482.17 39.32 1481.57 38.015 1481.57 36.725Z" fill="black"/>
<line y1="2" x2="1728" y2="2" stroke="black" stroke-width="4"/>
</svg>
